<svg xmlns="http://www.w3.org/2000/svg" xmlns:xlink="http://www.w3.org/1999/xlink" viewBox="0 0 150 150"><defs><style>.cls-1{fill:none;}.cls-2{fill:url(#linear-gradient);}.cls-3{fill:url(#linear-gradient-2);}.cls-4{fill:url(#linear-gradient-3);}</style><linearGradient id="linear-gradient" x1="73.12" y1="-3422.34" x2="73.12" y2="-3299.84" gradientTransform="matrix(1, 0, 0, -1, 0, -3283.45)" gradientUnits="userSpaceOnUse"><stop offset="0" stop-color="#541ca9"/><stop offset="1" stop-color="#b41f9b"/></linearGradient><linearGradient id="linear-gradient-2" x1="15.91" y1="763.64" x2="130.05" y2="763.64" gradientTransform="translate(0 -686)" gradientUnits="userSpaceOnUse"><stop offset="0" stop-color="#f7e79b"/><stop offset="0.22" stop-color="#faeba5"/><stop offset="0.34" stop-color="#d7ba6e"/><stop offset="0.45" stop-color="#bc9443"/><stop offset="0.5" stop-color="#b28633"/><stop offset="0.55" stop-color="#b58b38"/><stop offset="0.6" stop-color="#be9847"/><stop offset="0.67" stop-color="#cdad5f"/><stop offset="0.73" stop-color="#e2cc81"/><stop offset="0.8" stop-color="#fbf0aa"/><stop offset="0.83" stop-color="#f8eca5"/><stop offset="0.87" stop-color="#efdf96"/><stop offset="0.92" stop-color="#e1ca7d"/><stop offset="0.97" stop-color="#cdac5b"/><stop offset="1" stop-color="#c09843"/></linearGradient><linearGradient id="linear-gradient-3" x1="47.26" y1="759" x2="99.34" y2="759" xlink:href="#linear-gradient-2"/></defs><g id="Layer_2" data-name="Layer 2"><g id="Capa_1" data-name="Capa 1"><rect class="cls-1" width="150" height="150"/><path class="cls-2" d="M123.35,30.7A10.75,10.75,0,0,1,112.64,20a3.63,3.63,0,0,0-3.6-3.6H37.19a3.64,3.64,0,0,0-3.6,3.6A10.75,10.75,0,0,1,22.88,30.7a3.63,3.63,0,0,0-3.6,3.6V77.84a53.56,53.56,0,0,0,8.4,29.09,68.94,68.94,0,0,0,18.19,18.71c11.55,8.26,25.26,13.25,27.25,13.25,1.84,0,15.46-4.9,27.24-13.25a67.75,67.75,0,0,0,18.19-18.71A53.27,53.27,0,0,0,127,77.84V34.3A3.67,3.67,0,0,0,123.35,30.7Z"/><path class="cls-3" d="M126.49,27.93a11.43,11.43,0,0,1-11.4-11.4,3.77,3.77,0,0,0-3.79-3.79H35.21a3.77,3.77,0,0,0-3.79,3.79A11.44,11.44,0,0,1,20,27.93a3.77,3.77,0,0,0-3.78,3.79V77.84a56.55,56.55,0,0,0,8.91,30.85,72.53,72.53,0,0,0,19.3,19.81c12.24,8.77,26.78,14,28.86,14s16.44-5.18,28.86-14a72.47,72.47,0,0,0,19.3-19.81,56.14,56.14,0,0,0,8.91-30.85V31.72A4,4,0,0,0,126.49,27.93Zm-2.12,49.68a50.72,50.72,0,0,1-8,27.66,65,65,0,0,1-17.31,17.78C87.89,131,74.92,135.66,73.16,135.66s-14.91-4.76-25.9-12.61a64.92,64.92,0,0,1-17.32-17.78,51,51,0,0,1-8-27.66V36.2a3.44,3.44,0,0,1,3.42-3.42A10.24,10.24,0,0,0,35.58,22.57,3.43,3.43,0,0,1,39,19.16h68.34a3.44,3.44,0,0,1,3.42,3.41A10.24,10.24,0,0,0,121,32.78a3.47,3.47,0,0,1,3.42,3.42Z"/><path class="cls-4" d="M73.3,47A26,26,0,1,0,99.34,73,26.08,26.08,0,0,0,73.3,47ZM89.88,64.69,72.38,87.77a4.14,4.14,0,0,1-3,1.62,1.79,1.79,0,0,1-.46,0,4.35,4.35,0,0,1-2.86-1.06L53.81,77.2A4.19,4.19,0,0,1,59.45,71l8.91,8.08L83.14,59.61a4.22,4.22,0,1,1,6.74,5.08Z"/></g></g></svg>