<svg xmlns="http://www.w3.org/2000/svg" xmlns:xlink="http://www.w3.org/1999/xlink" viewBox="0 0 150 150"><defs><style>.cls-1{fill:none;}.cls-2{fill:url(#linear-gradient);}.cls-3{fill:url(#linear-gradient-2);}.cls-4{fill:url(#linear-gradient-3);}.cls-5{fill:#461ba4;}</style><linearGradient id="linear-gradient" x1="73.47" y1="-3385.1" x2="73.47" y2="-3292.69" gradientTransform="matrix(1, 0, 0, -1, 0, -3283.45)" gradientUnits="userSpaceOnUse"><stop offset="0" stop-color="#541ca9"/><stop offset="1" stop-color="#b41f9b"/></linearGradient><linearGradient id="linear-gradient-2" x1="30.31" y1="741.44" x2="116.42" y2="741.44" gradientTransform="translate(0 -686)" gradientUnits="userSpaceOnUse"><stop offset="0" stop-color="#f7e79b"/><stop offset="0.22" stop-color="#faeba5"/><stop offset="0.34" stop-color="#d7ba6e"/><stop offset="0.45" stop-color="#bc9443"/><stop offset="0.5" stop-color="#b28633"/><stop offset="0.55" stop-color="#b58b38"/><stop offset="0.6" stop-color="#be9847"/><stop offset="0.67" stop-color="#cdad5f"/><stop offset="0.73" stop-color="#e2cc81"/><stop offset="0.8" stop-color="#fbf0aa"/><stop offset="0.83" stop-color="#f8eca5"/><stop offset="0.87" stop-color="#efdf96"/><stop offset="0.92" stop-color="#e1ca7d"/><stop offset="0.97" stop-color="#cdac5b"/><stop offset="1" stop-color="#c09843"/></linearGradient><linearGradient id="linear-gradient-3" x1="53.96" y1="737.94" x2="93.25" y2="737.94" xlink:href="#linear-gradient-2"/></defs><g id="Layer_2" data-name="Layer 2"><g id="Capa_1" data-name="Capa 1"><rect class="cls-1" width="150" height="150"/><path class="cls-2" d="M111.37,20A8.11,8.11,0,0,1,103.28,12a2.73,2.73,0,0,0-2.71-2.71H46.37A2.74,2.74,0,0,0,43.65,12,8.11,8.11,0,0,1,35.57,20a2.75,2.75,0,0,0-2.72,2.72V55.6a40.4,40.4,0,0,0,6.34,21.94A52.07,52.07,0,0,0,52.92,91.65c8.7,6.24,19,10,20.55,10S85.14,98,94,91.65a51,51,0,0,0,13.72-14.11,40.16,40.16,0,0,0,6.34-21.94V22.75A2.77,2.77,0,0,0,111.37,20Z"/><path class="cls-3" d="M113.73,17.94a8.62,8.62,0,0,1-8.6-8.6,2.85,2.85,0,0,0-2.86-2.86H44.87A2.85,2.85,0,0,0,42,9.34a8.61,8.61,0,0,1-8.6,8.6,2.85,2.85,0,0,0-2.86,2.86V55.6a42.66,42.66,0,0,0,6.73,23.27A54.62,54.62,0,0,0,51.84,93.81c9.23,6.62,20.2,10.59,21.77,10.59S86,100.5,95.38,93.81a54.73,54.73,0,0,0,14.56-14.94,42.4,42.4,0,0,0,6.72-23.27V20.8A3,3,0,0,0,113.73,17.94Zm-1.6,37.48a38.32,38.32,0,0,1-6,20.87A49,49,0,0,1,93,89.7c-8.43,6-18.21,9.51-19.54,9.51S62.25,95.62,54,89.7A49,49,0,0,1,40.9,76.29a38.49,38.49,0,0,1-6-20.87V24.18a2.6,2.6,0,0,1,2.58-2.58,7.72,7.72,0,0,0,7.7-7.7,2.59,2.59,0,0,1,2.58-2.57H99.28a2.6,2.6,0,0,1,2.58,2.57,7.71,7.71,0,0,0,7.69,7.7,2.62,2.62,0,0,1,2.58,2.58Z"/><path class="cls-4" d="M73.61,32.3A19.65,19.65,0,1,0,93.25,51.94,19.66,19.66,0,0,0,73.61,32.3Zm12.5,13.37L72.91,63.09a3.16,3.16,0,0,1-2.23,1.22,1.38,1.38,0,0,1-.35,0,3.34,3.34,0,0,1-2.16-.8l-9.26-8.43a3.14,3.14,0,0,1-.21-4.46,3.19,3.19,0,0,1,4.46-.21l6.72,6.1L81,41.84a3.18,3.18,0,1,1,5.08,3.83Z"/><path class="cls-5" d="M34.59,111.19h2.06l4.67,11.71H39.16l-1.08-2.69H33.13l-1,2.69h-2.2Zm2.93,7.28-1.88-5-1.88,5Z"/><path class="cls-5" d="M43.13,122.27a3.4,3.4,0,0,1-.8-2.34v-5.08h2.12v4.88c0,1.18.56,1.74,1.64,1.74a2.68,2.68,0,0,0,1.36-.35,3.17,3.17,0,0,0,1.08-1.05v-5.26h2.12v8h-2v-1.08a3.59,3.59,0,0,1-1.36,1,4.43,4.43,0,0,1-1.67.31A2.93,2.93,0,0,1,43.13,122.27Z"/><path class="cls-5" d="M53.86,122.41a3,3,0,0,1-.7-2.09v-3.87H51.94v-1.6h1.22v-2.4h2.12v2.4H57.2v1.6H55.28V120a1.71,1.71,0,0,0,.28,1.08,1.36,1.36,0,0,0,1,.31,2.12,2.12,0,0,0,1-.24v1.6a5.33,5.33,0,0,1-1.74.28A2.22,2.22,0,0,1,53.86,122.41Z"/><path class="cls-5" d="M59.15,110.53h2.13v5.36a3.85,3.85,0,0,1,3-1.29,3.11,3.11,0,0,1,2.43.88,3.33,3.33,0,0,1,.81,2.33v5.09H65.35V118c0-1.19-.56-1.74-1.64-1.74a2.55,2.55,0,0,0-1.35.35,3,3,0,0,0-1.08,1v5.26H59.15Z"/><path class="cls-5" d="M71,122.65a3.92,3.92,0,0,1-1.63-1.46,4.63,4.63,0,0,1,0-4.56,4,4,0,0,1,1.63-1.5,5.65,5.65,0,0,1,2.48-.53,5.48,5.48,0,0,1,2.47.53,3.78,3.78,0,0,1,1.64,1.5,4.29,4.29,0,0,1,.59,2.26,4.55,4.55,0,0,1-.59,2.3,3.69,3.69,0,0,1-1.64,1.46,5.48,5.48,0,0,1-2.47.52A5.64,5.64,0,0,1,71,122.65Zm4.32-1.88a3,3,0,0,0,0-3.8,2.81,2.81,0,0,0-3.69,0,2.62,2.62,0,0,0-.67,1.92,2.68,2.68,0,0,0,.7,1.88,2.4,2.4,0,0,0,1.85.73A2.35,2.35,0,0,0,75.31,120.77Z"/><path class="cls-5" d="M79.84,114.88H81.9v1.29a2.74,2.74,0,0,1,1.39-1,6.19,6.19,0,0,1,2.06-.32v1.61a5.71,5.71,0,0,0-2.13.38A2.3,2.3,0,0,0,82,118.05v4.88H79.84v-8.05Z"/><path class="cls-5" d="M87,113.14a1.17,1.17,0,0,1,0-1.67,1.14,1.14,0,0,1,.83-.35,1.16,1.16,0,0,1,.87.35,1.1,1.1,0,0,1,.35.84,1.06,1.06,0,0,1-.35.83,1.29,1.29,0,0,1-.87.35A1.44,1.44,0,0,1,87,113.14Zm-.21,1.74H89v8.05H86.81Z"/><path class="cls-5" d="M90.74,121.57,95,116.45H90.88v-1.6h6.8v1.32l-4.29,5.12h4.39v1.61h-7v-1.33Z"/><path class="cls-5" d="M100.43,122a3.87,3.87,0,0,1-1.33-3.13,4.29,4.29,0,0,1,1.15-3.14,4.53,4.53,0,0,1,3.31-1.15,5.14,5.14,0,0,1,2.41.53,3.5,3.5,0,0,1,1.49,1.46,4.24,4.24,0,0,1,.49,2.13v1h-6.86c.14,1.18,1.18,1.78,3.1,1.78a8.41,8.41,0,0,0,1.57-.14,6.6,6.6,0,0,0,1.39-.39v1.64a8.22,8.22,0,0,1-1.46.38,9.71,9.71,0,0,1-1.78.14A4.74,4.74,0,0,1,100.43,122Zm5.57-3.76a1.92,1.92,0,0,0-.66-1.46,2.7,2.7,0,0,0-1.78-.52,2.66,2.66,0,0,0-1.74.52,1.82,1.82,0,0,0-.66,1.46Z"/><path class="cls-5" d="M111.4,122.62a3.67,3.67,0,0,1-1.5-1.5,4.57,4.57,0,0,1-.55-2.23,4.34,4.34,0,0,1,.55-2.23,3.94,3.94,0,0,1,1.5-1.53,4.45,4.45,0,0,1,2.19-.56,4.35,4.35,0,0,1,3.1,1v-5.12h2.13v12.37h-2.06v-.94a4.38,4.38,0,0,1-1.42.91,5.36,5.36,0,0,1-1.75.27A3.56,3.56,0,0,1,111.4,122.62Zm4.28-1.61a2.43,2.43,0,0,0,1-1.32v-1.64a2.62,2.62,0,0,0-1-1.32,2.9,2.9,0,0,0-1.6-.49,2.59,2.59,0,0,0-1.88.73,2.8,2.8,0,0,0,0,3.77,2.59,2.59,0,0,0,1.88.73A2.46,2.46,0,0,0,115.68,121Z"/><path class="cls-5" d="M30.14,142.23a4.82,4.82,0,0,1-1.26-3.52v-7.14H31v7.17a2.76,2.76,0,0,0,.76,2.13,3.36,3.36,0,0,0,4.18,0,2.77,2.77,0,0,0,.77-2.13v-7.17h2.12v7.14a4.87,4.87,0,0,1-1.25,3.52,5,5,0,0,1-3.73,1.29A5.1,5.1,0,0,1,30.14,142.23Z"/><path class="cls-5" d="M40.79,131.53h2l5.47,8.15v-8.15h2.13v11.71h-2l-5.47-8.19v8.19H40.79Z"/><path class="cls-5" d="M52.39,131.53h2.13v11.71H52.39Z"/><path class="cls-5" d="M56.54,131.53h2.12v11.71H56.54Z"/><path class="cls-5" d="M69.36,142.75a5.44,5.44,0,0,1-2.2-2.13,6.36,6.36,0,0,1-.8-3.23,6.59,6.59,0,0,1,.8-3.24,5.44,5.44,0,0,1,2.2-2.13,7,7,0,0,1,3.27-.77,6.88,6.88,0,0,1,4,1.15v2a5.74,5.74,0,0,0-3.86-1.25,4.7,4.7,0,0,0-2.27.52,3.6,3.6,0,0,0-1.5,1.47,4.49,4.49,0,0,0-.52,2.19,4.09,4.09,0,0,0,.56,2.2A3.72,3.72,0,0,0,70.61,141a4.65,4.65,0,0,0,2.23.52,6.85,6.85,0,0,0,2.19-.31,4.58,4.58,0,0,0,1.78-1v2a6.64,6.64,0,0,1-4.18,1.22A6,6,0,0,1,69.36,142.75Z"/><path class="cls-5" d="M79.46,142.4a3.88,3.88,0,0,1-1.33-3.13,4.27,4.27,0,0,1,1.15-3.14A4.55,4.55,0,0,1,82.59,135a5.23,5.23,0,0,1,2.41.52A3.52,3.52,0,0,1,86.49,137a4.2,4.2,0,0,1,.49,2.12v1H80.12c.14,1.18,1.18,1.77,3.1,1.77a7.58,7.58,0,0,0,1.57-.14,6.07,6.07,0,0,0,1.39-.38V143a8.22,8.22,0,0,1-1.46.38,9.71,9.71,0,0,1-1.78.14A5.06,5.06,0,0,1,79.46,142.4ZM85,138.6a1.92,1.92,0,0,0-.66-1.46,2.7,2.7,0,0,0-1.78-.52,2.66,2.66,0,0,0-1.74.52,1.82,1.82,0,0,0-.66,1.46Z"/><path class="cls-5" d="M88.69,135.23h2v1.08a3.39,3.39,0,0,1,1.36-1,4.47,4.47,0,0,1,1.67-.32,3.17,3.17,0,0,1,2.44.87,3.35,3.35,0,0,1,.8,2.34v5.08H94.89V138.4c0-1.19-.56-1.75-1.64-1.75a2.68,2.68,0,0,0-1.36.35,3.26,3.26,0,0,0-1.08,1.05v5.26H88.69v-8.08Z"/><path class="cls-5" d="M100.15,142.78a3,3,0,0,1-.7-2.09v-3.86H98.23v-1.6h1.22v-2.41h2.13v2.41h1.91v1.6h-1.91v3.59a1.65,1.65,0,0,0,.28,1.08,1.35,1.35,0,0,0,1,.31,2.09,2.09,0,0,0,1-.24v1.6a5.33,5.33,0,0,1-1.74.28A2.34,2.34,0,0,1,100.15,142.78Z"/><path class="cls-5" d="M106.38,142.4a3.88,3.88,0,0,1-1.32-3.13,4.23,4.23,0,0,1,1.15-3.14,4.53,4.53,0,0,1,3.31-1.15,5.19,5.19,0,0,1,2.4.52,3.6,3.6,0,0,1,1.5,1.47,4.2,4.2,0,0,1,.49,2.12v1h-6.86c.14,1.18,1.18,1.77,3.1,1.77a7.48,7.48,0,0,0,1.56-.14,6.16,6.16,0,0,0,1.4-.38V143a8.36,8.36,0,0,1-1.47.38,9.6,9.6,0,0,1-1.77.14A5.1,5.1,0,0,1,106.38,142.4Zm5.58-3.8a2,2,0,0,0-.66-1.46,2.7,2.7,0,0,0-1.78-.52,2.66,2.66,0,0,0-1.74.52,1.82,1.82,0,0,0-.66,1.46Z"/><path class="cls-5" d="M115.61,135.23h2.06v1.28a2.74,2.74,0,0,1,1.39-1,6.24,6.24,0,0,1,2.06-.31v1.6a5.78,5.78,0,0,0-2.13.38,2.32,2.32,0,0,0-1.25,1.19v4.87h-2.13v-8Z"/></g></g></svg>