<?xml version="1.0" encoding="utf-8"?>
<!-- Generator: Adobe Illustrator 25.2.1, SVG Export Plug-In . SVG Version: 6.00 Build 0)  -->
<svg version="1.1" id="Layer_1" xmlns="http://www.w3.org/2000/svg" xmlns:xlink="http://www.w3.org/1999/xlink" x="0px" y="0px"
	 viewBox="0 0 512 512" style="enable-background:new 0 0 512 512;" xml:space="preserve">
<style type="text/css">
	.st0{fill:#3D3FC4;}
	.st1{fill:#B41F9B;}
	.st2{fill:#381B9F;}
	.st3{fill:#541CA9;}
	.st4{fill:#461BA4;}
	.st5{fill:#FFFFFF;}
	.st6{font-family:'Prompt-Regular';}
	.st7{font-size:53.9226px;}
</style>
<g>
	<g>
		<g>
			<g>
				<path class="st0" d="M327.7,238.7c-4.3,3.6-6.9,9-6.8,15c0.4,14.2-14.4,23.8-27.2,17.5c-8.8-4.3-19.4-1.2-24.5,7.2
					c0,0.1-0.1,0.2-0.2,0.2l37.7,61c2.3,3.7,7.6,3.6,9.8-0.1l15.1-25.5l31-2.8c4.3-0.4,6.6-5.1,4.4-8.7L327.7,238.7z"/>
			</g>
			<g>
				<path class="st0" d="M237,278.4c-5-8.4-15.7-11.5-24.5-7.2c-12.7,6.3-27.6-3.3-27.2-17.5c0.2-6-2.5-11.4-6.8-15l-39.4,63.8
					c-2.2,3.6,0.1,8.4,4.4,8.7l31,2.8l15.1,25.5c2.2,3.7,7.5,3.8,9.8,0.1l37.7-61C237.1,278.6,237,278.5,237,278.4L237,278.4z"/>
			</g>
			<g>
				<path class="st1" d="M265.9,77.3c10.5-9.6,27.4-4.7,31,9.1c2.5,9.5,11.8,15.5,21.5,13.8c14-2.4,25.6,10.9,21.1,24.4
					c-3,9.3,1.6,19.4,10.6,23.2c13.1,5.5,15.6,23,4.6,32c-7.6,6.2-9.2,17.2-3.6,25.3c8,11.7,0.7,27.8-13.4,29.4
					c-9.7,1.1-17,9.5-16.7,19.3c0.4,14.2-14.4,23.8-27.2,17.5c-8.8-4.3-19.4-1.2-24.5,7.2c-7.3,12.2-25,12.2-32.3,0
					c-5-8.4-15.7-11.5-24.5-7.2c-12.7,6.3-27.6-3.3-27.2-17.5c0.3-9.8-7-18.2-16.7-19.3c-14.1-1.6-21.5-17.7-13.4-29.4
					c5.5-8.1,4-19.1-3.6-25.3c-11-9-8.5-26.5,4.6-32c9-3.8,13.6-13.9,10.6-23.2c-4.4-13.5,7.1-26.9,21.1-24.4
					c9.7,1.7,19-4.3,21.5-13.8c3.6-13.8,20.5-18.7,31-9.1C247.6,84,258.7,84,265.9,77.3L265.9,77.3z"/>
			</g>
			<g>
				<circle class="st2" cx="253.1" cy="179.9" r="80.3"/>
			</g>
			<g>
				<circle class="st3" cx="253.1" cy="179.9" r="69.6"/>
			</g>
			<g>
				<path class="st4" d="M262.6,111c12.4,12.6,20.1,29.8,20.1,48.9c0,38.4-31.1,69.6-69.6,69.6c-3.2,0-6.4-0.2-9.5-0.7
					c12.6,12.8,30.1,20.7,49.5,20.7c38.4,0,69.6-31.1,69.6-69.6C322.7,144.7,296.5,115.6,262.6,111z"/>
			</g>
		</g>
		<g>
			<g>
				<path class="st5" d="M241.5,223.7c-2.8,0-5.5-1-7.6-2.9l-32.8-29.9c-4.6-4.2-4.9-11.3-0.7-15.8s11.3-4.9,15.8-0.7L240,196
					l39.4-52c3.7-4.9,10.8-5.9,15.7-2.2c4.9,3.7,5.9,10.8,2.2,15.7l-46.8,61.7c-1.9,2.5-4.8,4.1-7.9,4.4
					C242.2,223.7,241.9,223.7,241.5,223.7L241.5,223.7z"/>
			</g>
		</g>
	</g>
</g>
<text transform="matrix(1 0 0 1 96.295 399.0654)"><tspan x="0" y="0" class="st2 st6 st7">Authorized </tspan><tspan x="-37.2" y="64.7" class="st2 st6 st7">By UNII Center</tspan></text>
</svg>
