<svg xmlns="http://www.w3.org/2000/svg" xmlns:xlink="http://www.w3.org/1999/xlink" viewBox="0 0 150 150"><defs><style>.cls-1{fill:none;}.cls-2{fill:#b41f9b;}.cls-3{fill:url(#linear-gradient);}</style><linearGradient id="linear-gradient" x1="61.43" y1="-2095.76" x2="111.46" y2="-2095.76" gradientTransform="matrix(1, 0, 0, -1, 0, -1982.09)" gradientUnits="userSpaceOnUse"><stop offset="0" stop-color="#ff699a"/><stop offset="0.1" stop-color="#f9669a"/><stop offset="0.23" stop-color="#e75e99"/><stop offset="0.38" stop-color="#c95098"/><stop offset="0.55" stop-color="#a13d96"/><stop offset="0.58" stop-color="#993a96"/><stop offset="0.99" stop-color="#501a92"/></linearGradient></defs><g id="Layer_2" data-name="Layer 2"><g id="Capa_1" data-name="Capa 1"><rect class="cls-1" width="150" height="150"/><path class="cls-2" d="M75,14.45A45.61,45.61,0,0,0,29.6,60.19C29.6,96,70.74,133,72.49,134.58a3.81,3.81,0,0,0,2.51,1,3.73,3.73,0,0,0,2.51-1C79.26,133,120.4,96,120.4,60.19A45.61,45.61,0,0,0,75,14.45Zm0,70.64a25.24,25.24,0,1,1,25.23-25.24A25.28,25.28,0,0,1,75,85.09Z"/><path class="cls-3" d="M61.43,123.49c5.93,6.5,10.5,10.59,11.06,11.09a3.81,3.81,0,0,0,2.51,1,3.73,3.73,0,0,0,2.51-1c1.23-1.09,21.75-19.55,33.95-42.82C102.38,93.36,74.27,100.12,61.43,123.49Z"/></g></g></svg>