<svg xmlns="http://www.w3.org/2000/svg" width="50" height="50" viewBox="0 0 50 50">
  <g id="Group_4662" data-name="Group 4662" transform="translate(-865 -343)">
    <rect id="Rectangle_32446" data-name="Rectangle 32446" width="50" height="50" transform="translate(865 343)" fill="#ce6464" opacity="0"/>
    <g id="instagram" transform="translate(875.014 352.014)">
      <path id="Path_1107" data-name="Path 1107" d="M21.859,0H8.113A8.122,8.122,0,0,0,0,8.113V21.86a8.122,8.122,0,0,0,8.113,8.113H21.86a8.122,8.122,0,0,0,8.113-8.113V8.113A8.122,8.122,0,0,0,21.859,0Zm6.356,21.86a6.363,6.363,0,0,1-6.356,6.356H8.113A6.363,6.363,0,0,1,1.757,21.86V8.113A6.363,6.363,0,0,1,8.113,1.757H21.86a6.363,6.363,0,0,1,6.356,6.356Zm0,0" fill="#fff"/>
      <path id="Path_1108" data-name="Path 1108" d="M124.2,116a8.2,8.2,0,1,0,8.2,8.2A8.2,8.2,0,0,0,124.2,116Zm0,14.634a6.438,6.438,0,1,1,6.438-6.438A6.446,6.446,0,0,1,124.2,130.638Zm0,0" transform="translate(-109.213 -109.213)" fill="#fff"/>
      <path id="Path_1109" data-name="Path 1109" d="M360.4,66.285a2.422,2.422,0,1,0,2.422,2.422A2.424,2.424,0,0,0,360.4,66.285Zm0,3.086a.665.665,0,1,1,.665-.665A.665.665,0,0,1,360.4,69.371Zm0,0" transform="translate(-337.02 -62.405)" fill="#fff"/>
    </g>
  </g>
</svg>
