<svg xmlns="http://www.w3.org/2000/svg" width="50" height="50" viewBox="0 0 50 50">
  <g id="Group_4663" data-name="Group 4663" transform="translate(-865 -272)">
    <rect id="Rectangle_32445" data-name="Rectangle 32445" width="50" height="50" transform="translate(865 272)" fill="#ce6464" opacity="0"/>
    <g id="youtube_1_" data-name="youtube (1)" transform="translate(873 284.124)">
      <path id="Path_1110" data-name="Path 1110" d="M200.5,110.8l-7.511-4.11a1.38,1.38,0,0,0-2.042,1.21v8.149a1.377,1.377,0,0,0,2.033,1.215l7.512-4.039a1.38,1.38,0,0,0,.009-2.426Zm-7.561,4.225v-6.091l5.614,3.072Zm0,0" transform="translate(-178.265 -99.45)" fill="#fff"/>
      <path id="Path_1111" data-name="Path 1111" d="M33.75,6.078l0-.016a7.776,7.776,0,0,0-1.5-3.946A5.532,5.532,0,0,0,28.585.4l-.169-.02L28.357.372C23.862.045,17.074,0,17.006,0h-.012C16.926,0,10.138.045,5.6.372l-.06.006L5.383.4A5.393,5.393,0,0,0,1.74,2.169,8.149,8.149,0,0,0,.254,6.043l0,.035C.24,6.192,0,8.9,0,11.624v2.544C0,16.89.24,19.6.25,19.715l0,.017a7.7,7.7,0,0,0,1.493,3.9,5.646,5.646,0,0,0,3.787,1.694c.138.016.257.029.339.044l.079.011c2.6.247,10.732.369,11.077.374h.021c.068,0,6.856-.045,11.351-.372l.059-.006c.057-.008.121-.014.191-.022a5.269,5.269,0,0,0,3.612-1.728,8.148,8.148,0,0,0,1.486-3.875l0-.035c.01-.114.25-2.825.25-5.546V11.624C34,8.9,33.76,6.192,33.75,6.078Zm-1.742,8.091c0,2.519-.22,5.113-.241,5.351a6.326,6.326,0,0,1-.977,2.76,3.277,3.277,0,0,1-2.351,1.091l-.212.024c-4.347.314-10.879.363-11.18.364-.337,0-8.355-.128-10.872-.361-.129-.021-.268-.037-.415-.054A3.726,3.726,0,0,1,3.211,22.28l-.018-.02a5.739,5.739,0,0,1-.958-2.732c-.016-.18-.241-2.8-.241-5.359V11.624c0-2.516.219-5.108.241-5.351a6.2,6.2,0,0,1,.977-2.761,3.438,3.438,0,0,1,2.4-1.136l.162-.019c4.411-.316,10.99-.363,11.226-.365s6.813.049,11.184.365l.175.021A3.568,3.568,0,0,1,30.8,3.483l.008.009a5.832,5.832,0,0,1,.958,2.772c.015.17.242,2.8.242,5.36Zm0,0" fill="#fff"/>
    </g>
  </g>
</svg>
