<svg xmlns="http://www.w3.org/2000/svg" width="50" height="50" viewBox="0 0 50 50">
  <g id="Group_4660" data-name="Group 4660" transform="translate(-625 -272)">
    <rect id="Rectangle_32443" data-name="Rectangle 32443" width="50" height="50" transform="translate(625 272)" fill="#ce6464" opacity="0"/>
    <path id="facebook_1_" data-name="facebook (1)" d="M25.45,0H4.368A4.373,4.373,0,0,0,0,4.368V25.45a4.373,4.373,0,0,0,4.368,4.368h8.794V19.277H9.668V14.036h3.494V10.483A5.247,5.247,0,0,1,18.4,5.241h5.3v5.241H18.4v3.553h5.3l-.874,5.241H18.4V29.818H25.45a4.373,4.373,0,0,0,4.368-4.368V4.368A4.373,4.373,0,0,0,25.45,0Zm0,0" transform="translate(635 282.091)" fill="#fff"/>
  </g>
</svg>
