<svg xmlns="http://www.w3.org/2000/svg" width="50" height="50" viewBox="0 0 50 50">
  <g id="Group_4661" data-name="Group 4661" transform="translate(-625 -342)">
    <rect id="Rectangle_32444" data-name="Rectangle 32444" width="50" height="50" transform="translate(625 342)" fill="#ce6464" opacity="0"/>
    <g id="twitter_1_" data-name="twitter (1)" transform="translate(635.639 355.405)">
      <g id="Group_3386" data-name="Group 3386" transform="translate(0 0)">
        <path id="Path_1106" data-name="Path 1106" d="M28.541,50.745a12.2,12.2,0,0,1-3.371.924,5.818,5.818,0,0,0,2.574-3.234,11.693,11.693,0,0,1-3.71,1.416,5.851,5.851,0,0,0-10.121,4,6.025,6.025,0,0,0,.136,1.334,16.562,16.562,0,0,1-12.06-6.12,5.853,5.853,0,0,0,1.8,7.82,5.778,5.778,0,0,1-2.644-.721v.064A5.878,5.878,0,0,0,5.829,61.98a5.839,5.839,0,0,1-1.534.193,5.173,5.173,0,0,1-1.108-.1,5.907,5.907,0,0,0,5.467,4.076,11.757,11.757,0,0,1-7.255,2.5,10.96,10.96,0,0,1-1.4-.08,16.472,16.472,0,0,0,8.976,2.626c10.767,0,16.653-8.919,16.653-16.65,0-.259-.009-.508-.021-.756A11.673,11.673,0,0,0,28.541,50.745Z" transform="translate(0 -48)" fill="#fff"/>
      </g>
    </g>
  </g>
</svg>
