<svg xmlns="http://www.w3.org/2000/svg" width="50" height="50" viewBox="0 0 50 50">
  <g id="Group_4664" data-name="Group 4664" transform="translate(-1105 -272)">
    <rect id="Rectangle_32447" data-name="Rectangle 32447" width="50" height="50" transform="translate(1105 272)" fill="#ce6464" opacity="0"/>
    <g id="line-logo" transform="translate(1115.18 279.677)">
      <path id="Path_1112" data-name="Path 1112" d="M29.57,15.033h0l-.009-.076V14.95l-.034-.286-.024-.2-.007-.059-.015,0a11.257,11.257,0,0,0-2.893-5.674A14.748,14.748,0,0,0,20.835,4.95,17.455,17.455,0,0,0,14.8,3.893,16.926,16.926,0,0,0,6.883,5.811C2.328,8.231-.358,12.68.039,17.144A11.7,11.7,0,0,0,2.656,23.5,14.116,14.116,0,0,0,8.2,27.567a21.093,21.093,0,0,0,4.127,1.111l.167.033c.392.078.5.184.524.226a.491.491,0,0,1,0,.318c-.019.078-.038.157-.057.235a4.686,4.686,0,0,0-.187,1.978,1.379,1.379,0,0,0,1.4,1.285h0a5.185,5.185,0,0,0,2.322-.9l.081-.047c1.443-.847,2.8-1.8,3.825-2.541a33.261,33.261,0,0,0,6.678-5.814A11.486,11.486,0,0,0,29.57,15.033ZM9.23,19.553H6.673a.7.7,0,0,1-.7-.7V13.486a.7.7,0,0,1,1.4,0v4.667H9.23a.7.7,0,0,1,0,1.4Zm2.667-.719a.7.7,0,0,1-1.4,0V13.467a.7.7,0,0,1,1.4,0Zm6.324,0a.7.7,0,0,1-1.266.411l-2.52-3.47v3.059a.7.7,0,0,1-1.4,0V13.62a.7.7,0,0,1,1.266-.411l2.52,3.47V13.467a.7.7,0,0,1,1.4,0Zm5.1.59H19.858a.7.7,0,0,1-.7-.7V13.357a.7.7,0,0,1,.7-.7h3.355a.7.7,0,0,1,0,1.4H20.557v1.284h2.155a.7.7,0,1,1,0,1.4H20.557v1.284H23.32a.7.7,0,0,1,0,1.4Z" transform="translate(0 0)" fill="#fff"/>
    </g>
  </g>
</svg>
