<svg xmlns="http://www.w3.org/2000/svg" xmlns:xlink="http://www.w3.org/1999/xlink" width="201" height="201" viewBox="0 0 201 201">
  <defs>
    <linearGradient id="linear-gradient" x1="0.5" y1="1" x2="0.5" gradientUnits="objectBoundingBox">
      <stop offset="0" stop-color="#5e2092"/>
      <stop offset="1" stop-color="#f56499"/>
    </linearGradient>
  </defs>
  <g id="Group_4671" data-name="Group 4671" transform="translate(-986 -1196)">
    <g id="Rectangle_3" data-name="Rectangle 3" transform="translate(986 1196)" fill="#fff" stroke="#707070" stroke-width="1" opacity="0">
      <rect width="201" height="201" stroke="none"/>
      <rect x="0.5" y="0.5" width="200" height="200" fill="none"/>
    </g>
    <g id="Group_4669" data-name="Group 4669">
      <circle id="Ellipse_528" data-name="Ellipse 528" cx="74.5" cy="74.5" r="74.5" transform="translate(1012 1222)" fill="url(#linear-gradient)"/>
      <g id="Group_1604" data-name="Group 1604" transform="translate(89.246 -30.999)">
        <path id="Subtraction_12" data-name="Subtraction 12" d="M16.686,19.06h0L0,0A48.193,48.193,0,0,0,8.095,2.193a48.86,48.86,0,0,0,8.591.76,48.86,48.86,0,0,0,8.591-.76A48.192,48.192,0,0,0,33.372,0L16.686,19.059Z" transform="translate(981.153 1354.261)" fill="#fff"/>
        <path id="Subtraction_13" data-name="Subtraction 13" d="M38,76a37.822,37.822,0,0,1-21.246-6.49A38.111,38.111,0,0,1,2.986,52.791a37.95,37.95,0,0,1,3.5-36.037A38.111,38.111,0,0,1,23.209,2.986a37.95,37.95,0,0,1,36.037,3.5A38.111,38.111,0,0,1,73.014,23.209a37.95,37.95,0,0,1-3.5,36.037A38.111,38.111,0,0,1,52.791,73.014,37.762,37.762,0,0,1,38,76Zm.293-68.4a30.745,30.745,0,0,0-21.7,8.9,30.284,30.284,0,0,0-6.578,9.663,30.232,30.232,0,0,0,0,23.666A30.284,30.284,0,0,0,16.589,59.5,30.858,30.858,0,0,0,60,59.5a30.285,30.285,0,0,0,6.578-9.663,30.232,30.232,0,0,0,0-23.666A30.285,30.285,0,0,0,60,16.5a30.745,30.745,0,0,0-21.7-8.9Z" transform="translate(959.754 1278.999)" fill="#fff"/>
        <ellipse id="Ellipse_517" data-name="Ellipse 517" cx="13.5" cy="2.5" rx="13.5" ry="2.5" transform="translate(984.754 1370.999)" fill="#fff"/>
        <g id="Group_1603" data-name="Group 1603" transform="translate(980.572 1295.238)">
          <g id="Group_2" data-name="Group 2" transform="translate(0 8.38)">
            <path id="Path_5" data-name="Path 5" d="M281.013,206.832a21.424,21.424,0,0,1,5.7,3.006,10.494,10.494,0,0,1,3.484,4.415,17.662,17.662,0,0,1,1.508,5.916,6.021,6.021,0,0,1-2.231,5.1,5.9,5.9,0,0,1-3.97,1.471,8.736,8.736,0,0,1-3.379-.743l-.228-.1-.265-.114a11.183,11.183,0,0,1-.548-3.12c-.021-.312-.039-.563-.073-.8V206.832m-2.742-3.721V221.9a2.209,2.209,0,0,0,.026.344,14.447,14.447,0,0,0,1.086,5.231c.246.489,1.143.816,1.645,1.035a11.46,11.46,0,0,0,4.478.972,8.663,8.663,0,0,0,5.745-2.123c5.029-4.273,3-10.387,1.491-14.132s-5.271-7.71-14.472-10.116" transform="translate(-278.271 -203.111)" fill="#fff"/>
          </g>
          <g id="Group_3" data-name="Group 3" transform="translate(0.555 0)">
            <path id="Path_6" data-name="Path 6" d="M296.148,205.306H296.1c-6.219-.013-9.826-2.547-11.756-4.669a12.294,12.294,0,0,1-2.755-4.792l-.618-2.458,2.395.827a12.613,12.613,0,0,0,4.071.769,6.92,6.92,0,0,0,6.322-3.889,13.378,13.378,0,0,0,1.449-4.177l.21-9.353.009-.071a16.165,16.165,0,0,1,9.386-13.1,21.9,21.9,0,0,1,7.881-2.074l1.393-.049.028,1.392c.013.688.326,16.914,0,24.118a19.352,19.352,0,0,1-4.712,11.66A17.065,17.065,0,0,1,296.148,205.306ZM285.4,197.554c1.435,2.158,4.5,5,10.714,5.011h.039c10.6,0,14.967-9.144,15.229-14.907.266-5.852.1-18.162.025-22.438a19.666,19.666,0,0,0-5.481,1.687,13.341,13.341,0,0,0-7.761,10.86l-.213,9.364-.008.071a15.875,15.875,0,0,1-1.742,5.154,9.625,9.625,0,0,1-8.758,5.369A12.8,12.8,0,0,1,285.4,197.554Z" transform="translate(-280.975 -162.273)" fill="#fff"/>
          </g>
          <g id="Group_4" data-name="Group 4" transform="translate(1.204 0.049)">
            <path id="Path_7" data-name="Path 7" d="M295.561,201.7a18.367,18.367,0,0,1-2.5-.167,11.714,11.714,0,0,1-8.922-5.6l2.367-1.385c3.618,6.187,12.451,4.061,12.54,4.039a1.2,1.2,0,0,0,.162-.054,10.219,10.219,0,0,0,5.977-6.149,11.527,11.527,0,0,0,.694-4.111l0-.051v-.055l.226-14.513.015-.1c.872-5.522,3.351-8.227,5.279-9.524a8.53,8.53,0,0,1,4.272-1.525l.06,2.741h.013c-.227.009-5.549.325-6.9,8.641l-.222,14.273a14.278,14.278,0,0,1-.814,5.034,13.01,13.01,0,0,1-7.551,7.871,3.7,3.7,0,0,1-.546.178A18.156,18.156,0,0,1,295.561,201.7Z" transform="translate(-284.14 -162.514)" fill="#fff"/>
          </g>
        </g>
      </g>
    </g>
  </g>
</svg>
