<svg xmlns="http://www.w3.org/2000/svg" xmlns:xlink="http://www.w3.org/1999/xlink" width="201" height="201" viewBox="0 0 201 201">
  <defs>
    <linearGradient id="linear-gradient" x1="0.5" y1="1" x2="0.5" gradientUnits="objectBoundingBox">
      <stop offset="0" stop-color="#5e2092"/>
      <stop offset="1" stop-color="#f56499"/>
    </linearGradient>
  </defs>
  <g id="Group_4675" data-name="Group 4675" transform="translate(-416 -1196)">
    <g id="Rectangle_1" data-name="Rectangle 1" transform="translate(416 1196)" fill="#fff" stroke="#707070" stroke-width="1" opacity="0">
      <rect width="201" height="201" stroke="none"/>
      <rect x="0.5" y="0.5" width="200" height="200" fill="none"/>
    </g>
    <circle id="Ellipse_530" data-name="Ellipse 530" cx="74.5" cy="74.5" r="74.5" transform="translate(442 1222)" fill="url(#linear-gradient)"/>
    <g id="Group_3390" data-name="Group 3390" transform="translate(73.772 2386.113)">
      <path id="Path_6" data-name="Path 6" d="M3791.452,542.185a46.4,46.4,0,0,0,64.319-.236l4.742,4.525a1.812,1.812,0,0,0,3-.838l7.452-27.547a1.812,1.812,0,0,0-2.3-2.2l-27.172,8.727a1.812,1.812,0,0,0-.7,3.036l4.68,4.466a32.156,32.156,0,0,1-30.609,7.509,1.812,1.812,0,0,0-.968,3.493,35.773,35.773,0,0,0,35.486-9.775,1.812,1.812,0,0,0-.06-2.563l-3.682-3.5,21.095-6.775-5.927,21.235-3.823-3.648a1.813,1.813,0,0,0-2.562.06,42.768,42.768,0,0,1-73.65-27.364l6.915-2.222a35.676,35.676,0,0,0,11.079,25.948,1.812,1.812,0,1,0,2.5-2.622,32.084,32.084,0,0,1-9.864-25.708,1.813,1.813,0,0,0-2.054-1.931c-.1.014-10.991,3.5-10.991,3.5a1.812,1.812,0,0,0-1.257,1.761,46.063,46.063,0,0,0,14.347,32.661Z" transform="translate(-3380.883 -1592.986)" fill="#fff" stroke="#fff" stroke-miterlimit="10" stroke-width="1"/>
      <path id="Path_7" data-name="Path 7" d="M3851.543,160.153a46.4,46.4,0,0,0-64.256-2.852l-4.519-4.748a1.813,1.813,0,0,0-3.038.693l-8.766,27.157a1.812,1.812,0,0,0,2.2,2.307l27.56-7.412a1.812,1.812,0,0,0,.841-3l-4.46-4.685a32.156,32.156,0,0,1,30.934-6.031,1.812,1.812,0,1,0,1.134-3.442,35.773,35.773,0,0,0-35.915,8.061,1.812,1.812,0,0,0-.063,2.562l3.643,3.827-21.4,5.755,6.806-21.085,3.644,3.828a1.813,1.813,0,0,0,2.562.063,42.767,42.767,0,0,1,72.251,30.868l-7.013,1.888a35.675,35.675,0,0,0-9.82-26.45,1.812,1.812,0,0,0-2.626,2.5,32.084,32.084,0,0,1,8.62,26.152,1.812,1.812,0,0,0,1.958,2.028c.1-.009,11.146-2.971,11.146-2.971a1.812,1.812,0,0,0,1.34-1.7,46.065,46.065,0,0,0-12.762-33.312Z" transform="translate(-3375.567 -1287)" fill="#fff" stroke="#fff" stroke-miterlimit="10" stroke-width="1"/>
      <g id="Group_3389" data-name="Group 3389" transform="translate(421.427 -1115.06)">
        <g id="Group_2" data-name="Group 2" transform="translate(0 10.205)">
          <path id="Path_5" data-name="Path 5" d="M281.61,207.642a26.088,26.088,0,0,1,6.943,3.66,12.778,12.778,0,0,1,4.242,5.376,21.507,21.507,0,0,1,1.837,7.2,7.332,7.332,0,0,1-2.716,6.211,7.179,7.179,0,0,1-4.834,1.792,10.638,10.638,0,0,1-4.115-.9l-.277-.118-.323-.139a13.616,13.616,0,0,1-.667-3.8c-.026-.38-.048-.685-.089-.974V207.642m-3.339-4.531V225.99a2.693,2.693,0,0,0,.032.419c.125.821.058,3.851,1.323,6.37.3.6,1.391.993,2,1.26a13.954,13.954,0,0,0,5.453,1.184,10.548,10.548,0,0,0,7-2.586c6.123-5.2,3.653-12.648,1.815-17.209s-6.419-9.388-17.622-12.318" transform="translate(-278.271 -203.111)" fill="#fff"/>
        </g>
        <g id="Group_3" data-name="Group 3" transform="translate(0.676 0)">
          <path id="Path_6-2" data-name="Path 6" d="M299.452,214.675H299.4c-7.573-.016-11.965-3.1-14.315-5.686a14.971,14.971,0,0,1-3.354-5.836l-.753-2.993,2.916,1.007a15.358,15.358,0,0,0,4.957.936,8.427,8.427,0,0,0,7.7-4.735,16.29,16.29,0,0,0,1.765-5.086l.255-11.39.011-.086a19.684,19.684,0,0,1,11.429-15.948,26.669,26.669,0,0,1,9.6-2.525l1.7-.06.034,1.7c.016.837.4,20.6,0,29.369a23.565,23.565,0,0,1-5.738,14.2A20.781,20.781,0,0,1,299.452,214.675Zm-13.093-9.44c1.747,2.627,5.484,6.085,13.046,6.1h.047c12.908,0,18.226-11.134,18.544-18.152.324-7.125.117-22.116.031-27.322a23.947,23.947,0,0,0-6.674,2.054,16.246,16.246,0,0,0-9.451,13.224l-.259,11.4-.01.086a19.329,19.329,0,0,1-2.121,6.276,11.721,11.721,0,0,1-10.664,6.538A15.583,15.583,0,0,1,286.358,205.235Z" transform="translate(-280.975 -162.273)" fill="#fff"/>
        </g>
        <g id="Group_4" data-name="Group 4" transform="translate(1.467 0.06)">
          <path id="Path_7-2" data-name="Path 7" d="M298.047,210.236a22.364,22.364,0,0,1-3.043-.2c-4.9-.677-8.651-3.035-10.864-6.818l2.883-1.686c4.405,7.534,15.161,4.946,15.27,4.919a1.458,1.458,0,0,0,.2-.065,12.444,12.444,0,0,0,7.279-7.488,14.036,14.036,0,0,0,.846-5.007l0-.062v-.067l.276-17.672.018-.117c1.061-6.724,4.08-10.018,6.428-11.6a10.388,10.388,0,0,1,5.2-1.857l.073,3.338h.016c-.276.011-6.757.4-8.4,10.522l-.27,17.38a17.388,17.388,0,0,1-.991,6.129,15.843,15.843,0,0,1-9.2,9.585,4.51,4.51,0,0,1-.665.216A22.107,22.107,0,0,1,298.047,210.236Z" transform="translate(-284.14 -162.514)" fill="#fff"/>
        </g>
      </g>
    </g>
  </g>
</svg>
